<mxfile host="app.diagrams.net" agent="Mozilla/5.0 (Windows NT 10.0; Win64; x64) AppleWebKit/537.36 (KHTML, like Gecko) Chrome/131.0.0.0 Safari/537.36" version="24.8.4">
  <diagram name="Sivu-1" id="-SNUJlUc8G6fXagj1PRz">
    <mxGraphModel dx="2694" dy="1163" grid="1" gridSize="10" guides="1" tooltips="1" connect="1" arrows="1" fold="1" page="1" pageScale="1" pageWidth="827" pageHeight="1169" math="0" shadow="0">
      <root>
        <mxCell id="0" />
        <mxCell id="1" parent="0" />
        <mxCell id="Z2odeVTqPKVVSxUnjB5O-1" value="&lt;b&gt;: User&lt;/b&gt;" style="shape=umlActor;verticalLabelPosition=bottom;verticalAlign=top;html=1;" vertex="1" parent="1">
          <mxGeometry x="50" y="115" width="20" height="40" as="geometry" />
        </mxCell>
        <mxCell id="Z2odeVTqPKVVSxUnjB5O-2" value="&lt;b&gt;: ApplicationManager&lt;/b&gt;" style="html=1;whiteSpace=wrap;verticalAlign=top;fillColor=#007FFF;" vertex="1" parent="1">
          <mxGeometry x="220" y="110" width="130" height="50" as="geometry" />
        </mxCell>
        <mxCell id="Z2odeVTqPKVVSxUnjB5O-4" value="&lt;b&gt;: Authentication&lt;/b&gt;" style="html=1;whiteSpace=wrap;verticalAlign=top;fillColor=#007FFF;" vertex="1" parent="1">
          <mxGeometry x="442" y="110" width="110" height="50" as="geometry" />
        </mxCell>
        <mxCell id="Z2odeVTqPKVVSxUnjB5O-5" value="" style="html=1;points=[[0,0,0,0,5],[0,1,0,0,-5],[1,0,0,0,5],[1,1,0,0,-5]];perimeter=orthogonalPerimeter;outlineConnect=0;targetShapes=umlLifeline;portConstraint=eastwest;newEdgeStyle={&quot;curved&quot;:0,&quot;rounded&quot;:0};fillColor=#007FFF;strokeColor=#000000;" vertex="1" parent="1">
          <mxGeometry x="55" y="190" width="10" height="850" as="geometry" />
        </mxCell>
        <mxCell id="Z2odeVTqPKVVSxUnjB5O-6" value="" style="endArrow=none;dashed=1;endFill=0;endSize=12;html=1;rounded=0;exitX=0.5;exitY=1;exitDx=0;exitDy=0;strokeWidth=2;jumpSize=7;strokeColor=#636363;" edge="1" parent="1" source="Z2odeVTqPKVVSxUnjB5O-16">
          <mxGeometry width="160" relative="1" as="geometry">
            <mxPoint x="284.5" y="160" as="sourcePoint" />
            <mxPoint x="285" y="1030" as="targetPoint" />
          </mxGeometry>
        </mxCell>
        <mxCell id="Z2odeVTqPKVVSxUnjB5O-7" value="&lt;b&gt;: AppDataManager&lt;/b&gt;" style="html=1;whiteSpace=wrap;verticalAlign=top;fillColor=#007FFF;" vertex="1" parent="1">
          <mxGeometry x="640" y="110" width="120" height="50" as="geometry" />
        </mxCell>
        <mxCell id="Z2odeVTqPKVVSxUnjB5O-9" value="" style="endArrow=none;dashed=1;endFill=0;endSize=12;html=1;rounded=0;exitX=0.5;exitY=1;exitDx=0;exitDy=0;strokeWidth=2;jumpSize=7;strokeColor=#000000;" edge="1" parent="1" source="Z2odeVTqPKVVSxUnjB5O-42">
          <mxGeometry width="160" relative="1" as="geometry">
            <mxPoint x="496.5799999999999" y="160" as="sourcePoint" />
            <mxPoint x="496" y="1020" as="targetPoint" />
          </mxGeometry>
        </mxCell>
        <mxCell id="Z2odeVTqPKVVSxUnjB5O-10" value="" style="endArrow=none;dashed=1;endFill=0;endSize=12;html=1;rounded=0;exitX=0.5;exitY=1;exitDx=0;exitDy=0;strokeWidth=2;jumpSize=7;strokeColor=#000000;" edge="1" parent="1">
          <mxGeometry width="160" relative="1" as="geometry">
            <mxPoint x="700" y="370" as="sourcePoint" />
            <mxPoint x="700" y="1010" as="targetPoint" />
          </mxGeometry>
        </mxCell>
        <mxCell id="Z2odeVTqPKVVSxUnjB5O-17" value="" style="endArrow=none;dashed=1;endFill=0;endSize=12;html=1;rounded=0;exitX=0.5;exitY=1;exitDx=0;exitDy=0;strokeWidth=2;jumpSize=7;strokeColor=#000000;" edge="1" parent="1" target="Z2odeVTqPKVVSxUnjB5O-16">
          <mxGeometry width="160" relative="1" as="geometry">
            <mxPoint x="284.5" y="160" as="sourcePoint" />
            <mxPoint x="284.5" y="500" as="targetPoint" />
          </mxGeometry>
        </mxCell>
        <mxCell id="Z2odeVTqPKVVSxUnjB5O-16" value="" style="html=1;points=[[0,0,0,0,5],[0,1,0,0,-5],[1,0,0,0,5],[1,1,0,0,-5]];perimeter=orthogonalPerimeter;outlineConnect=0;targetShapes=umlLifeline;portConstraint=eastwest;newEdgeStyle={&quot;curved&quot;:0,&quot;rounded&quot;:0};fillColor=#007FFF;" vertex="1" parent="1">
          <mxGeometry x="280" y="200" width="10" height="800" as="geometry" />
        </mxCell>
        <mxCell id="Z2odeVTqPKVVSxUnjB5O-32" value="" style="endArrow=block;endFill=0;endSize=12;html=1;rounded=0;" edge="1" parent="1" source="Z2odeVTqPKVVSxUnjB5O-5">
          <mxGeometry width="160" relative="1" as="geometry">
            <mxPoint x="110" y="220" as="sourcePoint" />
            <mxPoint x="280" y="220" as="targetPoint" />
          </mxGeometry>
        </mxCell>
        <mxCell id="Z2odeVTqPKVVSxUnjB5O-33" value="&lt;font style=&quot;font-size: 15px;&quot;&gt;&lt;b&gt;Enter userId&lt;/b&gt;&lt;/font&gt;" style="edgeLabel;html=1;align=center;verticalAlign=middle;resizable=0;points=[];" vertex="1" connectable="0" parent="Z2odeVTqPKVVSxUnjB5O-32">
          <mxGeometry x="-0.0269" relative="1" as="geometry">
            <mxPoint as="offset" />
          </mxGeometry>
        </mxCell>
        <mxCell id="Z2odeVTqPKVVSxUnjB5O-40" value="&lt;font style=&quot;font-size: 15px;&quot;&gt;validate user input&lt;/font&gt;" style="html=1;align=left;spacingLeft=2;endArrow=block;rounded=0;edgeStyle=orthogonalEdgeStyle;curved=0;rounded=0;exitX=1;exitY=0.071;exitDx=0;exitDy=0;exitPerimeter=0;" edge="1" target="Z2odeVTqPKVVSxUnjB5O-16" parent="1" source="Z2odeVTqPKVVSxUnjB5O-16">
          <mxGeometry x="0.2507" y="5" relative="1" as="geometry">
            <mxPoint x="295" y="220" as="sourcePoint" />
            <Array as="points">
              <mxPoint x="290" y="220" />
              <mxPoint x="325" y="220" />
              <mxPoint x="325" y="260" />
            </Array>
            <mxPoint x="300" y="240" as="targetPoint" />
            <mxPoint as="offset" />
          </mxGeometry>
        </mxCell>
        <mxCell id="Z2odeVTqPKVVSxUnjB5O-41" value="&lt;font style=&quot;font-size: 15px;&quot;&gt;&lt;b&gt;alt&lt;/b&gt;&lt;/font&gt;" style="shape=umlFrame;whiteSpace=wrap;html=1;pointerEvents=0;width=50;height=30;" vertex="1" parent="1">
          <mxGeometry x="190" y="290" width="870" height="750" as="geometry" />
        </mxCell>
        <mxCell id="Z2odeVTqPKVVSxUnjB5O-43" value="" style="endArrow=none;dashed=1;endFill=0;endSize=12;html=1;rounded=0;exitX=0.5;exitY=1;exitDx=0;exitDy=0;strokeWidth=2;jumpSize=7;strokeColor=#000000;" edge="1" parent="1" target="Z2odeVTqPKVVSxUnjB5O-42">
          <mxGeometry width="160" relative="1" as="geometry">
            <mxPoint x="496.5799999999999" y="160" as="sourcePoint" />
            <mxPoint x="496.5799999999999" y="500" as="targetPoint" />
          </mxGeometry>
        </mxCell>
        <mxCell id="Z2odeVTqPKVVSxUnjB5O-42" value="" style="html=1;points=[[0,0,0,0,5],[0,1,0,0,-5],[1,0,0,0,5],[1,1,0,0,-5]];perimeter=orthogonalPerimeter;outlineConnect=0;targetShapes=umlLifeline;portConstraint=eastwest;newEdgeStyle={&quot;curved&quot;:0,&quot;rounded&quot;:0};fillColor=#007FFF;" vertex="1" parent="1">
          <mxGeometry x="492" y="350" width="10" height="220" as="geometry" />
        </mxCell>
        <mxCell id="Z2odeVTqPKVVSxUnjB5O-45" value="" style="endArrow=none;dashed=1;endFill=0;endSize=12;html=1;rounded=0;exitX=0.5;exitY=1;exitDx=0;exitDy=0;strokeWidth=2;jumpSize=7;strokeColor=#000000;" edge="1" parent="1">
          <mxGeometry width="160" relative="1" as="geometry">
            <mxPoint x="700" y="160" as="sourcePoint" />
            <mxPoint x="700" y="360" as="targetPoint" />
          </mxGeometry>
        </mxCell>
        <mxCell id="Z2odeVTqPKVVSxUnjB5O-46" value="&lt;font style=&quot;font-size: 15px;&quot;&gt;[valid user input entered]&lt;/font&gt;" style="html=1;points=[[0,0,0,0,5],[0,1,0,0,-5],[1,0,0,0,5],[1,1,0,0,-5]];perimeter=orthogonalPerimeter;outlineConnect=0;targetShapes=umlLifeline;portConstraint=eastwest;newEdgeStyle={&quot;curved&quot;:0,&quot;rounded&quot;:0};" vertex="1" parent="1">
          <mxGeometry x="290" y="300" width="190" height="30" as="geometry" />
        </mxCell>
        <mxCell id="Z2odeVTqPKVVSxUnjB5O-47" value="&lt;span style=&quot;font-size: 13px;&quot;&gt;[else]&lt;/span&gt;" style="html=1;points=[[0,0,0,0,5],[0,1,0,0,-5],[1,0,0,0,5],[1,1,0,0,-5]];perimeter=orthogonalPerimeter;outlineConnect=0;targetShapes=umlLifeline;portConstraint=eastwest;newEdgeStyle={&quot;curved&quot;:0,&quot;rounded&quot;:0};" vertex="1" parent="1">
          <mxGeometry x="290" y="960" width="70" height="30" as="geometry" />
        </mxCell>
        <mxCell id="Z2odeVTqPKVVSxUnjB5O-48" value="" style="line;strokeWidth=1.5;fillColor=none;align=left;verticalAlign=middle;spacingTop=-1;spacingLeft=3;spacingRight=3;rotatable=0;labelPosition=right;points=[];portConstraint=eastwest;strokeColor=inherit;dashed=1;" vertex="1" parent="1">
          <mxGeometry x="190" y="940" width="870" height="8" as="geometry" />
        </mxCell>
        <mxCell id="Z2odeVTqPKVVSxUnjB5O-49" value="" style="endArrow=block;endFill=0;endSize=12;html=1;rounded=0;" edge="1" parent="1" target="Z2odeVTqPKVVSxUnjB5O-42">
          <mxGeometry width="160" relative="1" as="geometry">
            <mxPoint x="290" y="360" as="sourcePoint" />
            <mxPoint x="450" y="360.29" as="targetPoint" />
          </mxGeometry>
        </mxCell>
        <mxCell id="Z2odeVTqPKVVSxUnjB5O-50" value="&lt;font style=&quot;font-size: 15px;&quot;&gt;userExists(userId)&lt;/font&gt;" style="edgeLabel;html=1;align=center;verticalAlign=middle;resizable=0;points=[];" vertex="1" connectable="0" parent="Z2odeVTqPKVVSxUnjB5O-49">
          <mxGeometry x="-0.0269" relative="1" as="geometry">
            <mxPoint x="12" as="offset" />
          </mxGeometry>
        </mxCell>
        <mxCell id="Z2odeVTqPKVVSxUnjB5O-51" value="&lt;b&gt;: AuthManager&lt;/b&gt;" style="html=1;whiteSpace=wrap;verticalAlign=top;fillColor=#007FFF;" vertex="1" parent="1">
          <mxGeometry x="960" y="110" width="120" height="50" as="geometry" />
        </mxCell>
        <mxCell id="Z2odeVTqPKVVSxUnjB5O-53" value="" style="endArrow=none;dashed=1;endFill=0;endSize=12;html=1;rounded=0;exitX=0.5;exitY=1;exitDx=0;exitDy=0;strokeWidth=2;jumpSize=7;strokeColor=#000000;" edge="1" parent="1" source="Z2odeVTqPKVVSxUnjB5O-123">
          <mxGeometry width="160" relative="1" as="geometry">
            <mxPoint x="1040" y="165" as="sourcePoint" />
            <mxPoint x="1023" y="1020" as="targetPoint" />
          </mxGeometry>
        </mxCell>
        <mxCell id="Z2odeVTqPKVVSxUnjB5O-77" value="&lt;b&gt;: AppData&lt;/b&gt;" style="html=1;whiteSpace=wrap;verticalAlign=top;fillColor=#007FFF;" vertex="1" parent="1">
          <mxGeometry x="800" y="110" width="120" height="50" as="geometry" />
        </mxCell>
        <mxCell id="Z2odeVTqPKVVSxUnjB5O-78" value="" style="endArrow=none;dashed=1;endFill=0;endSize=12;html=1;rounded=0;exitX=0.5;exitY=1;exitDx=0;exitDy=0;strokeWidth=2;jumpSize=7;strokeColor=#000000;" edge="1" parent="1" source="Z2odeVTqPKVVSxUnjB5O-80">
          <mxGeometry width="160" relative="1" as="geometry">
            <mxPoint x="860" y="160" as="sourcePoint" />
            <mxPoint x="862" y="1020" as="targetPoint" />
          </mxGeometry>
        </mxCell>
        <mxCell id="Z2odeVTqPKVVSxUnjB5O-79" value="" style="endArrow=none;dashed=1;endFill=0;endSize=12;html=1;rounded=0;exitX=0.5;exitY=1;exitDx=0;exitDy=0;strokeWidth=2;jumpSize=7;strokeColor=#000000;" edge="1" parent="1" target="Z2odeVTqPKVVSxUnjB5O-80">
          <mxGeometry width="160" relative="1" as="geometry">
            <mxPoint x="860" y="160" as="sourcePoint" />
            <mxPoint x="860" y="500" as="targetPoint" />
          </mxGeometry>
        </mxCell>
        <mxCell id="Z2odeVTqPKVVSxUnjB5O-80" value="" style="html=1;points=[[0,0,0,0,5],[0,1,0,0,-5],[1,0,0,0,5],[1,1,0,0,-5]];perimeter=orthogonalPerimeter;outlineConnect=0;targetShapes=umlLifeline;portConstraint=eastwest;newEdgeStyle={&quot;curved&quot;:0,&quot;rounded&quot;:0};fillColor=#007FFF;" vertex="1" parent="1">
          <mxGeometry x="855" y="360" width="10" height="50" as="geometry" />
        </mxCell>
        <mxCell id="Z2odeVTqPKVVSxUnjB5O-81" value="" style="endArrow=block;endFill=0;endSize=12;html=1;rounded=0;" edge="1" parent="1" source="Z2odeVTqPKVVSxUnjB5O-42">
          <mxGeometry width="160" relative="1" as="geometry">
            <mxPoint x="705" y="364.76" as="sourcePoint" />
            <mxPoint x="855" y="364.76" as="targetPoint" />
          </mxGeometry>
        </mxCell>
        <mxCell id="Z2odeVTqPKVVSxUnjB5O-82" value="&lt;font style=&quot;font-size: 15px;&quot;&gt;getUserData()&lt;/font&gt;" style="edgeLabel;html=1;align=center;verticalAlign=middle;resizable=0;points=[];" vertex="1" connectable="0" parent="Z2odeVTqPKVVSxUnjB5O-81">
          <mxGeometry x="-0.0269" relative="1" as="geometry">
            <mxPoint x="26" as="offset" />
          </mxGeometry>
        </mxCell>
        <mxCell id="Z2odeVTqPKVVSxUnjB5O-84" value="" style="endArrow=block;dashed=1;endFill=0;endSize=12;html=1;rounded=0;entryX=1;entryY=0.4;entryDx=0;entryDy=0;entryPerimeter=0;" edge="1" parent="1" source="Z2odeVTqPKVVSxUnjB5O-80">
          <mxGeometry width="160" relative="1" as="geometry">
            <mxPoint x="817" y="390.0000000000002" as="sourcePoint" />
            <mxPoint x="502" y="390.0000000000002" as="targetPoint" />
          </mxGeometry>
        </mxCell>
        <mxCell id="Z2odeVTqPKVVSxUnjB5O-85" value="&lt;font style=&quot;font-size: 15px;&quot;&gt;userData&lt;/font&gt;" style="edgeLabel;html=1;align=center;verticalAlign=middle;resizable=0;points=[];" vertex="1" connectable="0" parent="Z2odeVTqPKVVSxUnjB5O-84">
          <mxGeometry x="-0.0119" relative="1" as="geometry">
            <mxPoint x="24" as="offset" />
          </mxGeometry>
        </mxCell>
        <mxCell id="Z2odeVTqPKVVSxUnjB5O-87" value="&lt;font style=&quot;font-size: 14px;&quot;&gt;&lt;b&gt;loop&lt;/b&gt;&lt;/font&gt;" style="shape=umlFrame;whiteSpace=wrap;html=1;pointerEvents=0;width=40;height=30;" vertex="1" parent="1">
          <mxGeometry x="422" y="410" width="230" height="160" as="geometry" />
        </mxCell>
        <mxCell id="Z2odeVTqPKVVSxUnjB5O-88" value="&lt;font style=&quot;font-size: 13px;&quot;&gt;for userId in userData&lt;/font&gt;" style="html=1;points=[[0,0,0,0,5],[0,1,0,0,-5],[1,0,0,0,5],[1,1,0,0,-5]];perimeter=orthogonalPerimeter;outlineConnect=0;targetShapes=umlLifeline;portConstraint=eastwest;newEdgeStyle={&quot;curved&quot;:0,&quot;rounded&quot;:0};" vertex="1" parent="1">
          <mxGeometry x="502" y="420" width="130" height="30" as="geometry" />
        </mxCell>
        <mxCell id="Z2odeVTqPKVVSxUnjB5O-89" value="&lt;font style=&quot;font-size: 14px;&quot;&gt;&lt;b&gt;alt&lt;/b&gt;&lt;/font&gt;" style="shape=umlFrame;whiteSpace=wrap;html=1;pointerEvents=0;width=40;height=25;" vertex="1" parent="1">
          <mxGeometry x="442" y="465" width="190" height="65" as="geometry" />
        </mxCell>
        <mxCell id="Z2odeVTqPKVVSxUnjB5O-90" value="&lt;font style=&quot;font-size: 13px;&quot;&gt;[userId match]&lt;/font&gt;" style="html=1;points=[[0,0,0,0,5],[0,1,0,0,-5],[1,0,0,0,5],[1,1,0,0,-5]];perimeter=orthogonalPerimeter;outlineConnect=0;targetShapes=umlLifeline;portConstraint=eastwest;newEdgeStyle={&quot;curved&quot;:0,&quot;rounded&quot;:0};" vertex="1" parent="1">
          <mxGeometry x="502" y="490" width="90" height="25" as="geometry" />
        </mxCell>
        <mxCell id="Z2odeVTqPKVVSxUnjB5O-95" value="" style="endArrow=block;dashed=1;endFill=0;endSize=12;html=1;rounded=0;" edge="1" parent="1">
          <mxGeometry width="160" relative="1" as="geometry">
            <mxPoint x="490" y="502.1600000000001" as="sourcePoint" />
            <mxPoint x="290" y="502.1600000000001" as="targetPoint" />
          </mxGeometry>
        </mxCell>
        <mxCell id="Z2odeVTqPKVVSxUnjB5O-96" value="&lt;font style=&quot;font-size: 15px;&quot;&gt;True | False&lt;/font&gt;" style="edgeLabel;html=1;align=center;verticalAlign=middle;resizable=0;points=[];" vertex="1" connectable="0" parent="Z2odeVTqPKVVSxUnjB5O-95">
          <mxGeometry x="-0.0119" relative="1" as="geometry">
            <mxPoint x="-26" as="offset" />
          </mxGeometry>
        </mxCell>
        <mxCell id="Z2odeVTqPKVVSxUnjB5O-100" value="&lt;font style=&quot;font-size: 15px;&quot;&gt;&lt;b&gt;alt&lt;/b&gt;&lt;/font&gt;" style="shape=umlFrame;whiteSpace=wrap;html=1;pointerEvents=0;width=45;height=30;" vertex="1" parent="1">
          <mxGeometry x="221" y="585" width="459" height="275" as="geometry" />
        </mxCell>
        <mxCell id="Z2odeVTqPKVVSxUnjB5O-101" value="&lt;font style=&quot;font-size: 15px;&quot;&gt;[user exists]&lt;/font&gt;" style="html=1;points=[[0,0,0,0,5],[0,1,0,0,-5],[1,0,0,0,5],[1,1,0,0,-5]];perimeter=orthogonalPerimeter;outlineConnect=0;targetShapes=umlLifeline;portConstraint=eastwest;newEdgeStyle={&quot;curved&quot;:0,&quot;rounded&quot;:0};" vertex="1" parent="1">
          <mxGeometry x="292" y="600" width="98" height="30" as="geometry" />
        </mxCell>
        <mxCell id="Z2odeVTqPKVVSxUnjB5O-104" value="" style="line;strokeWidth=1;fillColor=none;align=left;verticalAlign=middle;spacingTop=-1;spacingLeft=3;spacingRight=3;rotatable=0;labelPosition=right;points=[];portConstraint=eastwest;strokeColor=inherit;dashed=1;" vertex="1" parent="1">
          <mxGeometry x="221" y="810" width="460" height="8" as="geometry" />
        </mxCell>
        <mxCell id="Z2odeVTqPKVVSxUnjB5O-107" value="" style="html=1;points=[[0,0,0,0,5],[0,1,0,0,-5],[1,0,0,0,5],[1,1,0,0,-5]];perimeter=orthogonalPerimeter;outlineConnect=0;targetShapes=umlLifeline;portConstraint=eastwest;newEdgeStyle={&quot;curved&quot;:0,&quot;rounded&quot;:0};fillColor=#007FFF;" vertex="1" parent="1">
          <mxGeometry x="492" y="650" width="10" height="110" as="geometry" />
        </mxCell>
        <mxCell id="Z2odeVTqPKVVSxUnjB5O-108" value="" style="endArrow=block;endFill=0;endSize=12;html=1;rounded=0;" edge="1" parent="1" target="Z2odeVTqPKVVSxUnjB5O-107">
          <mxGeometry width="160" relative="1" as="geometry">
            <mxPoint x="290" y="664.58" as="sourcePoint" />
            <mxPoint x="490" y="665" as="targetPoint" />
          </mxGeometry>
        </mxCell>
        <mxCell id="Z2odeVTqPKVVSxUnjB5O-109" value="&lt;font style=&quot;font-size: 15px;&quot;&gt;authenticateUser(userId)&lt;/font&gt;" style="edgeLabel;html=1;align=center;verticalAlign=middle;resizable=0;points=[];" vertex="1" connectable="0" parent="Z2odeVTqPKVVSxUnjB5O-108">
          <mxGeometry x="-0.0269" relative="1" as="geometry">
            <mxPoint x="1" as="offset" />
          </mxGeometry>
        </mxCell>
        <mxCell id="Z2odeVTqPKVVSxUnjB5O-110" value="" style="endArrow=block;endFill=0;endSize=12;html=1;rounded=0;" edge="1" parent="1" target="Z2odeVTqPKVVSxUnjB5O-115">
          <mxGeometry width="160" relative="1" as="geometry">
            <mxPoint x="502" y="674.58" as="sourcePoint" />
            <mxPoint x="704" y="675" as="targetPoint" />
          </mxGeometry>
        </mxCell>
        <mxCell id="Z2odeVTqPKVVSxUnjB5O-111" value="&lt;font style=&quot;font-size: 15px;&quot;&gt;getUserById(userId)&lt;/font&gt;" style="edgeLabel;html=1;align=center;verticalAlign=middle;resizable=0;points=[];" vertex="1" connectable="0" parent="Z2odeVTqPKVVSxUnjB5O-110">
          <mxGeometry x="-0.0269" relative="1" as="geometry">
            <mxPoint x="1" as="offset" />
          </mxGeometry>
        </mxCell>
        <mxCell id="Z2odeVTqPKVVSxUnjB5O-117" value="" style="endArrow=none;dashed=1;endFill=0;endSize=12;html=1;rounded=0;exitX=0.5;exitY=1;exitDx=0;exitDy=0;strokeWidth=2;jumpSize=7;strokeColor=#000000;entryX=0.91;entryY=1.001;entryDx=0;entryDy=0;entryPerimeter=0;" edge="1" parent="1" source="Z2odeVTqPKVVSxUnjB5O-51" target="Z2odeVTqPKVVSxUnjB5O-115">
          <mxGeometry width="160" relative="1" as="geometry">
            <mxPoint x="1040" y="160" as="sourcePoint" />
            <mxPoint x="1045" y="1041" as="targetPoint" />
          </mxGeometry>
        </mxCell>
        <mxCell id="Z2odeVTqPKVVSxUnjB5O-115" value="" style="html=1;points=[[0,0,0,0,5],[0,1,0,0,-5],[1,0,0,0,5],[1,1,0,0,-5]];perimeter=orthogonalPerimeter;outlineConnect=0;targetShapes=umlLifeline;portConstraint=eastwest;newEdgeStyle={&quot;curved&quot;:0,&quot;rounded&quot;:0};fillColor=#007FFF;" vertex="1" parent="1">
          <mxGeometry x="1015" y="650" width="10" height="70" as="geometry" />
        </mxCell>
        <mxCell id="Z2odeVTqPKVVSxUnjB5O-118" value="" style="endArrow=block;dashed=1;endFill=0;endSize=12;html=1;rounded=0;" edge="1" parent="1" target="Z2odeVTqPKVVSxUnjB5O-107">
          <mxGeometry width="160" relative="1" as="geometry">
            <mxPoint x="1015" y="710" as="sourcePoint" />
            <mxPoint x="662" y="710.0000000000002" as="targetPoint" />
          </mxGeometry>
        </mxCell>
        <mxCell id="Z2odeVTqPKVVSxUnjB5O-119" value="&lt;font style=&quot;font-size: 15px;&quot;&gt;user&lt;/font&gt;" style="edgeLabel;html=1;align=center;verticalAlign=middle;resizable=0;points=[];" vertex="1" connectable="0" parent="Z2odeVTqPKVVSxUnjB5O-118">
          <mxGeometry x="-0.0119" relative="1" as="geometry">
            <mxPoint x="-12" as="offset" />
          </mxGeometry>
        </mxCell>
        <mxCell id="Z2odeVTqPKVVSxUnjB5O-121" value="" style="endArrow=block;endFill=0;endSize=12;html=1;rounded=0;" edge="1" parent="1">
          <mxGeometry width="160" relative="1" as="geometry">
            <mxPoint x="502" y="750.0000000000001" as="sourcePoint" />
            <mxPoint x="1015" y="750.0000000000001" as="targetPoint" />
          </mxGeometry>
        </mxCell>
        <mxCell id="Z2odeVTqPKVVSxUnjB5O-122" value="&lt;span style=&quot;font-size: 15px;&quot;&gt;setAuthenticatedUser(user)&lt;/span&gt;" style="edgeLabel;html=1;align=center;verticalAlign=middle;resizable=0;points=[];" vertex="1" connectable="0" parent="Z2odeVTqPKVVSxUnjB5O-121">
          <mxGeometry x="-0.0269" relative="1" as="geometry">
            <mxPoint x="1" as="offset" />
          </mxGeometry>
        </mxCell>
        <mxCell id="Z2odeVTqPKVVSxUnjB5O-124" value="" style="endArrow=none;dashed=1;endFill=0;endSize=12;html=1;rounded=0;exitX=0.5;exitY=1;exitDx=0;exitDy=0;strokeWidth=2;jumpSize=7;strokeColor=#000000;entryX=0.886;entryY=0.996;entryDx=0;entryDy=0;entryPerimeter=0;" edge="1" parent="1" source="Z2odeVTqPKVVSxUnjB5O-115" target="Z2odeVTqPKVVSxUnjB5O-123">
          <mxGeometry width="160" relative="1" as="geometry">
            <mxPoint x="1020" y="720" as="sourcePoint" />
            <mxPoint x="1023" y="1037" as="targetPoint" />
          </mxGeometry>
        </mxCell>
        <mxCell id="Z2odeVTqPKVVSxUnjB5O-123" value="" style="html=1;points=[[0,0,0,0,5],[0,1,0,0,-5],[1,0,0,0,5],[1,1,0,0,-5]];perimeter=orthogonalPerimeter;outlineConnect=0;targetShapes=umlLifeline;portConstraint=eastwest;newEdgeStyle={&quot;curved&quot;:0,&quot;rounded&quot;:0};fillColor=#007FFF;" vertex="1" parent="1">
          <mxGeometry x="1015" y="730" width="10" height="40" as="geometry" />
        </mxCell>
        <mxCell id="Z2odeVTqPKVVSxUnjB5O-126" value="&lt;font style=&quot;font-size: 15px;&quot;&gt;[else]&lt;/font&gt;" style="html=1;points=[[0,0,0,0,5],[0,1,0,0,-5],[1,0,0,0,5],[1,1,0,0,-5]];perimeter=orthogonalPerimeter;outlineConnect=0;targetShapes=umlLifeline;portConstraint=eastwest;newEdgeStyle={&quot;curved&quot;:0,&quot;rounded&quot;:0};" vertex="1" parent="1">
          <mxGeometry x="292" y="820" width="68" height="30" as="geometry" />
        </mxCell>
        <mxCell id="Z2odeVTqPKVVSxUnjB5O-127" value="" style="endArrow=block;dashed=1;endFill=0;endSize=12;html=1;rounded=0;" edge="1" parent="1">
          <mxGeometry width="160" relative="1" as="geometry">
            <mxPoint x="280" y="834.41" as="sourcePoint" />
            <mxPoint x="65" y="834.41" as="targetPoint" />
          </mxGeometry>
        </mxCell>
        <mxCell id="Z2odeVTqPKVVSxUnjB5O-128" value="&lt;span style=&quot;font-size: 15px;&quot;&gt;&lt;b&gt;User authentication&amp;nbsp;&lt;/b&gt;&lt;/span&gt;&lt;div&gt;&lt;span style=&quot;font-size: 15px;&quot;&gt;&lt;b&gt;failed&lt;/b&gt;&lt;/span&gt;&lt;/div&gt;" style="edgeLabel;html=1;align=center;verticalAlign=middle;resizable=0;points=[];" vertex="1" connectable="0" parent="Z2odeVTqPKVVSxUnjB5O-127">
          <mxGeometry x="-0.0119" relative="1" as="geometry">
            <mxPoint x="-4" y="1" as="offset" />
          </mxGeometry>
        </mxCell>
        <mxCell id="Z2odeVTqPKVVSxUnjB5O-129" value="" style="endArrow=block;dashed=1;endFill=0;endSize=12;html=1;rounded=0;" edge="1" parent="1">
          <mxGeometry width="160" relative="1" as="geometry">
            <mxPoint x="280" y="770" as="sourcePoint" />
            <mxPoint x="65" y="770" as="targetPoint" />
          </mxGeometry>
        </mxCell>
        <mxCell id="Z2odeVTqPKVVSxUnjB5O-130" value="&lt;span style=&quot;font-size: 15px;&quot;&gt;&lt;b&gt;User authenticated&lt;/b&gt;&lt;/span&gt;&lt;div&gt;&lt;span style=&quot;font-size: 15px;&quot;&gt;&lt;b&gt;&amp;nbsp;successfully&lt;/b&gt;&lt;/span&gt;&lt;/div&gt;" style="edgeLabel;html=1;align=center;verticalAlign=middle;resizable=0;points=[];" vertex="1" connectable="0" parent="Z2odeVTqPKVVSxUnjB5O-129">
          <mxGeometry x="-0.0119" relative="1" as="geometry">
            <mxPoint x="-4" as="offset" />
          </mxGeometry>
        </mxCell>
        <mxCell id="Z2odeVTqPKVVSxUnjB5O-131" value="" style="endArrow=block;dashed=1;endFill=0;endSize=12;html=1;rounded=0;" edge="1" parent="1">
          <mxGeometry width="160" relative="1" as="geometry">
            <mxPoint x="280" y="974.5" as="sourcePoint" />
            <mxPoint x="65" y="974.5" as="targetPoint" />
          </mxGeometry>
        </mxCell>
        <mxCell id="Z2odeVTqPKVVSxUnjB5O-132" value="&lt;span style=&quot;font-size: 15px;&quot;&gt;&lt;b&gt;Try again...&lt;/b&gt;&lt;/span&gt;" style="edgeLabel;html=1;align=center;verticalAlign=middle;resizable=0;points=[];" vertex="1" connectable="0" parent="Z2odeVTqPKVVSxUnjB5O-131">
          <mxGeometry x="-0.0119" relative="1" as="geometry">
            <mxPoint x="-4" y="1" as="offset" />
          </mxGeometry>
        </mxCell>
      </root>
    </mxGraphModel>
  </diagram>
</mxfile>
